{
  "accessors": [
    {
      "bufferView": 2,
      "componentType": 5126,
      "count": 352,
      "max": [
        1.0351799726486206,
        1.0351799726486206,
        0.17225000262260437
      ],
      "min": [
        -1.0351799726486206,
        -1.0351799726486206,
        -0.0
      ],
      "type": "VEC3"
    },
    {
      "bufferView": 2,
      "byteOffset": 4224,
      "componentType": 5126,
      "count": 352,
      "max": [
        0.9046445488929749,
        0.9046445488929749,
        0.9996680021286011
      ],
      "min": [
        -0.9046445488929749,
        -0.9046445488929749,
        -0.9995894432067871
      ],
      "type": "VEC3"
    },
    {
      "bufferView": 1,
      "componentType": 5126,
      "count": 352,
      "max": [
        3.297830104827881,
        3.297830104827881
      ],
      "min": [
        -2.297830104827881,
        -2.297830104827881
      ],
      "type": "VEC2"
    },
    {
      "bufferView": 0,
      "componentType": 5125,
      "count": 1908,
      "type": "SCALAR"
    },
    {
      "bufferView": 2,
      "byteOffset": 8448,
      "componentType": 5126,
      "count": 801,
      "max": [
        1.0416699647903442,
        1.3175400495529175,
        1.0627800226211548
      ],
      "min": [
        -3.094589948654175,
        -1.3175400495529175,
        -10.363800048828125
      ],
      "type": "VEC3"
    },
    {
      "bufferView": 2,
      "byteOffset": 18060,
      "componentType": 5126,
      "count": 801,
      "max": [
        0.9999940991401672,
        1.0,
        0.9974408149719238
      ],
      "min": [
        -0.9999913573265076,
        -1.0,
        -0.7695177793502808
      ],
      "type": "VEC3"
    },
    {
      "bufferView": 1,
      "byteOffset": 2816,
      "componentType": 5126,
      "count": 801,
      "max": [
        1.0,
        1.0
      ],
      "min": [
        0.0,
        0.0
      ],
      "type": "VEC2"
    },
    {
      "bufferView": 0,
      "byteOffset": 7632,
      "componentType": 5125,
      "count": 3642,
      "type": "SCALAR"
    },
    {
      "bufferView": 2,
      "byteOffset": 27672,
      "componentType": 5126,
      "count": 283,
      "max": [
        0.12003999948501587,
        0.11326000094413757,
        2.4022200107574463
      ],
      "min": [
        -0.23804999887943268,
        -0.09651999920606613,
        1.0178500413894653
      ],
      "type": "VEC3"
    },
    {
      "bufferView": 2,
      "byteOffset": 31068,
      "componentType": 5126,
      "count": 283,
      "max": [
        0.9974873661994934,
        0.9978018999099731,
        0.9596673846244812
      ],
      "min": [
        -0.9990361928939819,
        -0.9999603629112244,
        -0.14078105986118317
      ],
      "type": "VEC3"
    },
    {
      "bufferView": 1,
      "byteOffset": 9224,
      "componentType": 5126,
      "count": 283,
      "max": [
        1.0,
        1.0
      ],
      "min": [
        0.0,
        0.0
      ],
      "type": "VEC2"
    },
    {
      "bufferView": 0,
      "byteOffset": 22200,
      "componentType": 5125,
      "count": 960,
      "type": "SCALAR"
    },
    {
      "bufferView": 2,
      "byteOffset": 34464,
      "componentType": 5126,
      "count": 352,
      "max": [
        1.0351799726486206,
        1.0351799726486206,
        0.17225000262260437
      ],
      "min": [
        -1.0351799726486206,
        -1.0351799726486206,
        -0.0
      ],
      "type": "VEC3"
    },
    {
      "bufferView": 2,
      "byteOffset": 38688,
      "componentType": 5126,
      "count": 352,
      "max": [
        0.9046445488929749,
        0.9046445488929749,
        0.9996680021286011
      ],
      "min": [
        -0.9046445488929749,
        -0.9046445488929749,
        -0.9995894432067871
      ],
      "type": "VEC3"
    },
    {
      "bufferView": 1,
      "byteOffset": 11488,
      "componentType": 5126,
      "count": 352,
      "max": [
        3.297830104827881,
        3.297830104827881
      ],
      "min": [
        -2.297830104827881,
        -2.297830104827881
      ],
      "type": "VEC2"
    },
    {
      "bufferView": 0,
      "byteOffset": 26040,
      "componentType": 5125,
      "count": 1908,
      "type": "SCALAR"
    },
    {
      "bufferView": 2,
      "byteOffset": 42912,
      "componentType": 5126,
      "count": 801,
      "max": [
        1.5814199447631836,
        2.530369997024536,
        1.0627800226211548
      ],
      "min": [
        -2.682300090789795,
        -2.585390090942383,
        -10.40546989440918
      ],
      "type": "VEC3"
    },
    {
      "bufferView": 2,
      "byteOffset": 52524,
      "componentType": 5126,
      "count": 801,
      "max": [
        0.9999621510505676,
        1.0,
        0.9974408149719238
      ],
      "min": [
        -0.9999913573265076,
        -0.999965488910675,
        -0.8053128123283386
      ],
      "type": "VEC3"
    },
    {
      "bufferView": 1,
      "byteOffset": 14304,
      "componentType": 5126,
      "count": 801,
      "max": [
        1.0,
        1.0
      ],
      "min": [
        0.0,
        0.0
      ],
      "type": "VEC2"
    },
    {
      "bufferView": 0,
      "byteOffset": 33672,
      "componentType": 5125,
      "count": 3642,
      "type": "SCALAR"
    },
    {
      "bufferView": 2,
      "byteOffset": 62136,
      "componentType": 5126,
      "count": 283,
      "max": [
        0.12003999948501587,
        0.11326000094413757,
        2.4022200107574463
      ],
      "min": [
        -0.23804999887943268,
        -0.09651999920606613,
        1.0178500413894653
      ],
      "type": "VEC3"
    },
    {
      "bufferView": 2,
      "byteOffset": 65532,
      "componentType": 5126,
      "count": 283,
      "max": [
        0.9974873661994934,
        0.9978018999099731,
        0.9596673846244812
      ],
      "min": [
        -0.9990361928939819,
        -0.9999603629112244,
        -0.14078105986118317
      ],
      "type": "VEC3"
    },
    {
      "bufferView": 1,
      "byteOffset": 20712,
      "componentType": 5126,
      "count": 283,
      "max": [
        1.0,
        1.0
      ],
      "min": [
        0.0,
        0.0
      ],
      "type": "VEC2"
    },
    {
      "bufferView": 0,
      "byteOffset": 48240,
      "componentType": 5125,
      "count": 960,
      "type": "SCALAR"
    },
    {
      "bufferView": 2,
      "byteOffset": 68928,
      "componentType": 5126,
      "count": 352,
      "max": [
        1.0351799726486206,
        1.0351799726486206,
        0.17225000262260437
      ],
      "min": [
        -1.0351799726486206,
        -1.0351799726486206,
        -0.0
      ],
      "type": "VEC3"
    },
    {
      "bufferView": 2,
      "byteOffset": 73152,
      "componentType": 5126,
      "count": 352,
      "max": [
        0.9046445488929749,
        0.9046445488929749,
        0.9996680021286011
      ],
      "min": [
        -0.9046445488929749,
        -0.9046445488929749,
        -0.9995894432067871
      ],
      "type": "VEC3"
    },
    {
      "bufferView": 1,
      "byteOffset": 22976,
      "componentType": 5126,
      "count": 352,
      "max": [
        3.297830104827881,
        3.297830104827881
      ],
      "min": [
        -2.297830104827881,
        -2.297830104827881
      ],
      "type": "VEC2"
    },
    {
      "bufferView": 0,
      "byteOffset": 52080,
      "componentType": 5125,
      "count": 1908,
      "type": "SCALAR"
    },
    {
      "bufferView": 2,
      "byteOffset": 77376,
      "componentType": 5126,
      "count": 801,
      "max": [
        1.813330054283142,
        1.6368099451065063,
        8.20989990234375
      ],
      "min": [
        -1.6828399896621704,
        -1.6053600311279297,
        -0.056449998170137405
      ],
      "type": "VEC3"
    },
    {
      "bufferView": 2,
      "byteOffset": 86988,
      "componentType": 5126,
      "count": 801,
      "max": [
        0.9999368190765381,
        1.0,
        0.998653769493103
      ],
      "min": [
        -0.9999836087226868,
        -0.9999982714653015,
        -0.7780249714851379
      ],
      "type": "VEC3"
    },
    {
      "bufferView": 1,
      "byteOffset": 25792,
      "componentType": 5126,
      "count": 801,
      "max": [
        1.0,
        1.0
      ],
      "min": [
        0.0,
        0.0
      ],
      "type": "VEC2"
    },
    {
      "bufferView": 0,
      "byteOffset": 59712,
      "componentType": 5125,
      "count": 3642,
      "type": "SCALAR"
    },
    {
      "bufferView": 2,
      "byteOffset": 96600,
      "componentType": 5126,
      "count": 283,
      "max": [
        0.769860029220581,
        0.11326000094413757,
        9.301230430603027
      ],
      "min": [
        0.1962299942970276,
        -0.09651999920606613,
        8.17747974395752
      ],
      "type": "VEC3"
    },
    {
      "bufferView": 2,
      "byteOffset": 99996,
      "componentType": 5126,
      "count": 283,
      "max": [
        0.9959242343902588,
        0.9985241293907166,
        0.9906869530677795
      ],
      "min": [
        -0.9947285056114197,
        -0.9999049305915833,
        -0.5107951760292053
      ],
      "type": "VEC3"
    },
    {
      "bufferView": 1,
      "byteOffset": 32200,
      "componentType": 5126,
      "count": 283,
      "max": [
        1.0,
        1.0
      ],
      "min": [
        0.0,
        0.0
      ],
      "type": "VEC2"
    },
    {
      "bufferView": 0,
      "byteOffset": 74280,
      "componentType": 5125,
      "count": 960,
      "type": "SCALAR"
    },
    {
      "bufferView": 2,
      "byteOffset": 103392,
      "componentType": 5126,
      "count": 352,
      "max": [
        1.0351799726486206,
        1.0351799726486206,
        0.17225000262260437
      ],
      "min": [
        -1.0351799726486206,
        -1.0351799726486206,
        -0.0
      ],
      "type": "VEC3"
    },
    {
      "bufferView": 2,
      "byteOffset": 107616,
      "componentType": 5126,
      "count": 352,
      "max": [
        0.9046445488929749,
        0.9046445488929749,
        0.9996680021286011
      ],
      "min": [
        -0.9046445488929749,
        -0.9046445488929749,
        -0.9995894432067871
      ],
      "type": "VEC3"
    },
    {
      "bufferView": 1,
      "byteOffset": 34464,
      "componentType": 5126,
      "count": 352,
      "max": [
        3.297830104827881,
        3.297830104827881
      ],
      "min": [
        -2.297830104827881,
        -2.297830104827881
      ],
      "type": "VEC2"
    },
    {
      "bufferView": 0,
      "byteOffset": 78120,
      "componentType": 5125,
      "count": 1908,
      "type": "SCALAR"
    },
    {
      "bufferView": 2,
      "byteOffset": 111840,
      "componentType": 5126,
      "count": 388,
      "max": [
        1.0814599990844727,
        0.9519199728965759,
        6.099209785461426
      ],
      "min": [
        -0.951740026473999,
        -0.9519199728965759,
        -0.018789999186992645
      ],
      "type": "VEC3"
    },
    {
      "bufferView": 2,
      "byteOffset": 116496,
      "componentType": 5126,
      "count": 388,
      "max": [
        0.9999621510505676,
        1.0,
        0.997604250907898
      ],
      "min": [
        -0.9999913573265076,
        -0.9999991059303284,
        -0.6968077421188354
      ],
      "type": "VEC3"
    },
    {
      "bufferView": 1,
      "byteOffset": 37280,
      "componentType": 5126,
      "count": 388,
      "max": [
        0.8902999758720398,
        0.9972299933433533
      ],
      "min": [
        0.027319999411702156,
        0.0
      ],
      "type": "VEC2"
    },
    {
      "bufferView": 0,
      "byteOffset": 85752,
      "componentType": 5125,
      "count": 1914,
      "type": "SCALAR"
    },
    {
      "bufferView": 2,
      "byteOffset": 121152,
      "componentType": 5126,
      "count": 283,
      "max": [
        0.0364300012588501,
        0.04552000015974045,
        7.384079933166504
      ],
      "min": [
        -0.09538000077009201,
        -0.031690001487731934,
        6.066979885101318
      ],
      "type": "VEC3"
    },
    {
      "bufferView": 2,
      "byteOffset": 124548,
      "componentType": 5126,
      "count": 283,
      "max": [
        0.9975399971008301,
        0.9975066781044006,
        0.9930641651153564
      ],
      "min": [
        -0.9992290735244751,
        -0.999959409236908,
        -0.05496034026145935
      ],
      "type": "VEC3"
    },
    {
      "bufferView": 1,
      "byteOffset": 40384,
      "componentType": 5126,
      "count": 283,
      "max": [
        1.0,
        1.0
      ],
      "min": [
        0.0,
        0.0
      ],
      "type": "VEC2"
    },
    {
      "bufferView": 0,
      "byteOffset": 93408,
      "componentType": 5125,
      "count": 960,
      "type": "SCALAR"
    }
  ],
  "asset": {
    "extras": {
      "author": "rhcreations (https://sketchfab.com/rhcreations)",
      "license": "CC-BY-4.0 (http://creativecommons.org/licenses/by/4.0/)",
      "source": "https://sketchfab.com/3d-models/candles-4058a3ed739e4f9f89f49323c7db4b4c",
      "title": "Candles"
    },
    "generator": "Sketchfab-12.63.0",
    "version": "2.0"
  },
  "bufferViews": [
    {
      "buffer": 0,
      "byteLength": 97248,
      "name": "floatBufferViews",
      "target": 34963
    },
    {
      "buffer": 0,
      "byteLength": 42648,
      "byteOffset": 97248,
      "byteStride": 8,
      "name": "floatBufferViews",
      "target": 34962
    },
    {
      "buffer": 0,
      "byteLength": 127944,
      "byteOffset": 139896,
      "byteStride": 12,
      "name": "floatBufferViews",
      "target": 34962
    }
  ],
  "buffers": [
    {
      "byteLength": 267840,
      "uri": "scene.bin"
    }
  ],
  "extensionsRequired": [
    "KHR_materials_pbrSpecularGlossiness"
  ],
  "extensionsUsed": [
    "KHR_materials_pbrSpecularGlossiness"
  ],
  "images": [
    {
      "uri": "textures/Plate_Material_diffuse.jpeg"
    },
    {
      "uri": "textures/Candle_Material_diffuse.jpeg"
    },
    {
      "uri": "textures/Candle_Material_specularGlossiness.png"
    },
    {
      "uri": "textures/Wick_Material_diffuse.png"
    }
  ],
  "materials": [
    {
      "doubleSided": true,
      "extensions": {
        "KHR_materials_pbrSpecularGlossiness": {
          "diffuseFactor": [
            0.45903201219512196,
            0.45903201219512196,
            0.45903201219512196,
            1.0
          ],
          "diffuseTexture": {
            "index": 0
          },
          "glossinessFactor": 0.8510638326406479,
          "specularFactor": [
            0.9224466463414634,
            0.9224466463414634,
            0.9224466463414634
          ],
          "specularGlossinessTexture": {
            "index": 0
          }
        }
      },
      "name": "Plate_Material"
    },
    {
      "doubleSided": true,
      "extensions": {
        "KHR_materials_pbrSpecularGlossiness": {
          "diffuseFactor": [
            1.0,
            1.0,
            1.0,
            1.0
          ],
          "diffuseTexture": {
            "index": 1
          },
          "glossinessFactor": 0.684641768292683,
          "specularFactor": [
            1.0,
            1.0,
            1.0
          ],
          "specularGlossinessTexture": {
            "index": 2
          }
        }
      },
      "name": "Candle_Material"
    },
    {
      "doubleSided": true,
      "extensions": {
        "KHR_materials_pbrSpecularGlossiness": {
          "diffuseFactor": [
            1.0,
            1.0,
            1.0,
            1.0
          ],
          "diffuseTexture": {
            "index": 3
          },
          "glossinessFactor": 1.0,
          "specularFactor": [
            0.0,
            0.0,
            0.0
          ]
        }
      },
      "name": "Wick_Material"
    }
  ],
  "meshes": [
    {
      "name": "Candle Saucer_0",
      "primitives": [
        {
          "attributes": {
            "NORMAL": 1,
            "POSITION": 0,
            "TEXCOORD_0": 2
          },
          "indices": 3,
          "material": 0,
          "mode": 4
        }
      ]
    },
    {
      "name": "Candle 1_0",
      "primitives": [
        {
          "attributes": {
            "NORMAL": 5,
            "POSITION": 4,
            "TEXCOORD_0": 6
          },
          "indices": 7,
          "material": 1,
          "mode": 4
        }
      ]
    },
    {
      "name": "Candle 1_1",
      "primitives": [
        {
          "attributes": {
            "NORMAL": 9,
            "POSITION": 8,
            "TEXCOORD_0": 10
          },
          "indices": 11,
          "material": 2,
          "mode": 4
        }
      ]
    },
    {
      "name": "Candle Saucer 2_0",
      "primitives": [
        {
          "attributes": {
            "NORMAL": 13,
            "POSITION": 12,
            "TEXCOORD_0": 14
          },
          "indices": 15,
          "material": 0,
          "mode": 4
        }
      ]
    },
    {
      "name": "Candle 2_0",
      "primitives": [
        {
          "attributes": {
            "NORMAL": 17,
            "POSITION": 16,
            "TEXCOORD_0": 18
          },
          "indices": 19,
          "material": 1,
          "mode": 4
        }
      ]
    },
    {
      "name": "Candle 2_1",
      "primitives": [
        {
          "attributes": {
            "NORMAL": 21,
            "POSITION": 20,
            "TEXCOORD_0": 22
          },
          "indices": 23,
          "material": 2,
          "mode": 4
        }
      ]
    },
    {
      "name": "Candle Saucer 3_0",
      "primitives": [
        {
          "attributes": {
            "NORMAL": 25,
            "POSITION": 24,
            "TEXCOORD_0": 26
          },
          "indices": 27,
          "material": 0,
          "mode": 4
        }
      ]
    },
    {
      "name": "Candle 3_0",
      "primitives": [
        {
          "attributes": {
            "NORMAL": 29,
            "POSITION": 28,
            "TEXCOORD_0": 30
          },
          "indices": 31,
          "material": 1,
          "mode": 4
        }
      ]
    },
    {
      "name": "Candle 3_1",
      "primitives": [
        {
          "attributes": {
            "NORMAL": 33,
            "POSITION": 32,
            "TEXCOORD_0": 34
          },
          "indices": 35,
          "material": 2,
          "mode": 4
        }
      ]
    },
    {
      "name": "Candle Saucer 4_0",
      "primitives": [
        {
          "attributes": {
            "NORMAL": 37,
            "POSITION": 36,
            "TEXCOORD_0": 38
          },
          "indices": 39,
          "material": 0,
          "mode": 4
        }
      ]
    },
    {
      "name": "Candle 4_0",
      "primitives": [
        {
          "attributes": {
            "NORMAL": 41,
            "POSITION": 40,
            "TEXCOORD_0": 42
          },
          "indices": 43,
          "material": 1,
          "mode": 4
        }
      ]
    },
    {
      "name": "Candle 4_1",
      "primitives": [
        {
          "attributes": {
            "NORMAL": 45,
            "POSITION": 44,
            "TEXCOORD_0": 46
          },
          "indices": 47,
          "material": 2,
          "mode": 4
        }
      ]
    }
  ],
  "nodes": [
    {
      "children": [
        1
      ],
      "matrix": [
        1.0,
        0.0,
        0.0,
        0.0,
        0.0,
        2.220446049250313e-16,
        -1.0,
        0.0,
        0.0,
        1.0,
        2.220446049250313e-16,
        0.0,
        0.0,
        0.0,
        0.0,
        1.0
      ],
      "name": "Sketchfab_model"
    },
    {
      "children": [
        2,
        7,
        12,
        17
      ],
      "name": "Root"
    },
    {
      "children": [
        3,
        4
      ],
      "matrix": [
        3.79209,
        0.0,
        0.0,
        0.0,
        0.0,
        3.79209,
        0.0,
        0.0,
        0.0,
        0.0,
        3.79209,
        0.0,
        -18.190060000000003,
        0.0,
        0.0,
        1.0
      ],
      "name": "Candle Saucer"
    },
    {
      "mesh": 0,
      "name": "Candle Saucer_0"
    },
    {
      "children": [
        5,
        6
      ],
      "matrix": [
        0.27726,
        0.0,
        0.0,
        0.0,
        0.0,
        0.27726,
        0.0,
        0.0,
        0.0,
        0.0,
        0.27726,
        0.0,
        0.18474000000000004,
        -0.0,
        2.92576,
        1.0
      ],
      "name": "Candle 1"
    },
    {
      "mesh": 1,
      "name": "Candle 1_0"
    },
    {
      "mesh": 2,
      "name": "Candle 1_1"
    },
    {
      "children": [
        8,
        9
      ],
      "matrix": [
        3.79209,
        0.0,
        0.0,
        0.0,
        0.0,
        3.79209,
        0.0,
        0.0,
        0.0,
        0.0,
        3.79209,
        0.0,
        -6.065879999999999,
        0.0,
        0.0,
        1.0
      ],
      "name": "Candle Saucer 2"
    },
    {
      "mesh": 3,
      "name": "Candle Saucer 2_0"
    },
    {
      "children": [
        10,
        11
      ],
      "matrix": [
        0.27726,
        0.0,
        0.0,
        0.0,
        0.0,
        0.27726,
        0.0,
        0.0,
        0.0,
        0.0,
        0.27726,
        0.0,
        0.18474000000000004,
        -0.0,
        2.92576,
        1.0
      ],
      "name": "Candle 2"
    },
    {
      "mesh": 4,
      "name": "Candle 2_0"
    },
    {
      "mesh": 5,
      "name": "Candle 2_1"
    },
    {
      "children": [
        13,
        14
      ],
      "matrix": [
        3.79209,
        0.0,
        0.0,
        0.0,
        0.0,
        3.79209,
        0.0,
        0.0,
        0.0,
        0.0,
        3.79209,
        0.0,
        5.71354,
        0.0,
        0.0,
        1.0
      ],
      "name": "Candle Saucer 3"
    },
    {
      "mesh": 6,
      "name": "Candle Saucer 3_0"
    },
    {
      "children": [
        15,
        16
      ],
      "matrix": [
        0.27726,
        0.0,
        0.0,
        0.0,
        0.0,
        0.27726,
        0.0,
        0.0,
        0.0,
        0.0,
        0.27726,
        0.0,
        -0.0,
        0.0,
        0.06498000000000001,
        1.0
      ],
      "name": "Candle 3"
    },
    {
      "mesh": 7,
      "name": "Candle 3_0"
    },
    {
      "mesh": 8,
      "name": "Candle 3_1"
    },
    {
      "children": [
        18,
        19
      ],
      "matrix": [
        4.831390000000001,
        0.0,
        0.0,
        0.0,
        0.0,
        4.831390000000001,
        0.0,
        0.0,
        0.0,
        0.0,
        4.831390000000001,
        0.0,
        18.811040000000002,
        -0.15466000000000002,
        0.0,
        1.0
      ],
      "name": "Candle Saucer 4"
    },
    {
      "mesh": 9,
      "name": "Candle Saucer 4_0"
    },
    {
      "children": [
        20,
        21
      ],
      "matrix": [
        0.6329500000000001,
        0.0,
        0.0,
        0.0,
        0.0,
        0.6329500000000001,
        0.0,
        0.0,
        0.0,
        0.0,
        0.22193000000000004,
        0.0,
        0.0,
        0.0,
        0.0,
        1.0
      ],
      "name": "Candle 4"
    },
    {
      "mesh": 10,
      "name": "Candle 4_0"
    },
    {
      "mesh": 11,
      "name": "Candle 4_1"
    }
  ],
  "samplers": [
    {
      "magFilter": 9729,
      "minFilter": 9987,
      "wrapS": 10497,
      "wrapT": 10497
    }
  ],
  "scene": 0,
  "scenes": [
    {
      "name": "Sketchfab_Scene",
      "nodes": [
        0
      ]
    }
  ],
  "textures": [
    {
      "sampler": 0,
      "source": 0
    },
    {
      "sampler": 0,
      "source": 1
    },
    {
      "sampler": 0,
      "source": 2
    },
    {
      "sampler": 0,
      "source": 3
    }
  ]
}
