# Blender 3.5.0
# www.blender.org
mtllib Sketchfab_2023_03_18_19_38_06.mtl
o board_A
v -1.697464 -0.000000 0.730731
v -1.703678 -0.000000 0.732396
v -1.708227 -0.000000 0.736945
v -1.709892 -0.000000 0.743159
v -1.703678 0.000000 1.267604
v -1.697464 0.000000 1.269269
v -1.708227 0.000000 1.263055
v -1.709892 0.000000 1.256841
v -1.291773 0.000000 1.263055
v -1.290108 0.000000 1.256841
v -1.296322 0.000000 1.267604
v -1.302536 0.000000 1.269269
v -1.296322 -0.000000 0.732396
v -1.302536 -0.000000 0.730731
v -1.291773 -0.000000 0.736945
v -1.290108 -0.000000 0.743159
v -1.679573 0.040039 0.756359
v -1.673346 0.040039 0.754690
v -1.684132 0.040039 0.760917
v -1.685800 0.040039 0.767144
v -1.673346 0.040039 1.245307
v -1.679573 0.040039 1.243639
v -1.684132 0.040039 1.239080
v -1.685800 0.040039 1.232853
v -1.314201 0.040039 1.232853
v -1.315870 0.040039 1.239080
v -1.320429 0.040039 1.243639
v -1.326656 0.040039 1.245307
v -1.326656 0.040039 0.754690
v -1.320429 0.040039 0.756359
v -1.315870 0.040039 0.760917
v -1.314201 0.040039 0.767144
v -1.326656 0.040039 1.232853
v -1.326656 0.040039 0.767144
v -1.673346 0.040039 0.767144
v -1.673346 0.040039 1.232853
v -1.302536 -0.000000 0.743159
v -1.697464 -0.000000 0.743159
v -1.302536 0.000000 1.256841
v -1.697464 0.000000 1.256841
vn -0.4019 0.6361 -0.6586
vn -0.6842 0.6308 -0.3660
vn -0.3658 0.6301 -0.6849
vn -0.4019 0.6362 0.6586
vn -0.6842 0.6309 0.3659
vn -0.6585 0.6366 0.4014
vn 0.8120 0.5683 -0.1330
vn 0.8324 0.5484 0.0793
vn 0.8120 0.5683 0.1330
vn -0.0000 -1.0000 -0.0000
vn 0.6842 0.6309 0.3659
vn 0.6585 0.6366 0.4014
vn 0.4019 0.6362 0.6586
vn 0.3658 0.6302 0.6849
vn 0.1333 0.5669 0.8130
vn 0.1334 0.5668 -0.8130
vn 0.3658 0.6301 -0.6849
vn 0.4019 0.6362 -0.6586
vn 0.6842 0.6309 -0.3660
vn 0.6585 0.6366 -0.4014
vn -0.8120 0.5683 -0.1330
vn -0.8325 0.5484 -0.0793
vn -0.1333 0.5668 -0.8130
vn 0.0792 0.5466 -0.8337
vn -0.0000 1.0000 -0.0000
vn -0.3658 0.6302 0.6849
vn -0.1333 0.5669 0.8130
vn -0.0792 0.5466 0.8336
vn -0.8120 0.5683 0.1330
vn 0.0792 0.5466 0.8336
vn -0.8325 0.5484 0.0793
vn -0.0792 0.5466 -0.8337
vn -0.6585 0.6366 -0.4014
vn 0.8324 0.5484 -0.0793
vt 0.661201 0.031669
vt 0.692063 0.021752
vt 0.851118 0.646671
vt 0.659221 0.024280
vt 0.845623 0.641349
vt 0.653812 0.018870
vt 0.842145 0.634535
vt 0.841059 0.626963
vt 0.646423 0.016891
vt 0.022789 0.024280
vt 0.821691 0.031005
vt 0.020809 0.031669
vt 0.822816 0.038572
vt 0.818179 0.024209
vt 0.028198 0.018870
vt 0.035587 0.016890
vt 0.812657 0.018916
vt 0.843260 0.016135
vt 0.982329 0.023598
vt 0.028199 0.514085
vt 0.983414 0.031170
vt 0.035588 0.516065
vt 0.022790 0.508676
vt 0.978850 0.016785
vt 0.823759 0.508189
vt 0.020810 0.501287
vt 0.973355 0.011463
vt 0.659220 0.508676
vt 0.694130 0.498937
vt 0.693006 0.491370
vt 0.661199 0.501287
vt 0.697642 0.505733
vt 0.653810 0.514085
vt 0.981213 0.642000
vt 0.703164 0.511026
vt 0.646421 0.516065
vt 0.024058 0.553636
vt 0.901300 0.613058
vt 0.906807 0.618391
vt 0.747604 0.050320
vt 0.022074 0.561042
vt 0.029479 0.548216
vt 0.897815 0.606230
vt 0.896727 0.598642
vt 0.036884 0.546231
vt 0.767387 0.067363
vt 0.605480 0.561039
vt 0.603496 0.553634
vt 0.766260 0.059780
vt 0.598075 0.548213
vt 0.762741 0.052969
vt 0.757206 0.047664
vt 0.590670 0.546229
vt 0.898723 0.044861
vt 0.927745 0.059495
vt 0.590669 0.988110
vt 0.598075 0.986126
vt 0.926657 0.051906
vt 0.603496 0.980705
vt 0.923171 0.045079
vt 0.917665 0.039746
vt 0.768215 0.479619
vt 0.605480 0.973300
vt 0.748432 0.462577
vt 0.022073 0.973294
vt 0.024057 0.980699
vt 0.749559 0.470160
vt 0.029478 0.986120
vt 0.753078 0.476971
vt 0.036883 0.988104
vt 0.925749 0.613278
vt 0.758613 0.482275
vt 0.590669 0.973300
vt 0.036883 0.973294
vt 0.036884 0.561042
vt 0.590670 0.561039
vt 0.646421 0.501287
vt 0.646423 0.031669
vt 0.035588 0.501287
vt 0.035587 0.031669
s 1
usemtl CuttingBoard_A
f 2/5/1 19/43/2 17/38/3
f 5/11/4 23/51/5 7/14/6
f 16/34/7 25/55/8 10/21/9
f 39/79/10 6/12/10 40/80/10
f 10/21/9 26/58/11 9/19/12
f 26/58/11 11/24/13 9/19/12
f 27/60/14 12/27/15 11/24/13
f 14/30/16 30/67/17 13/29/18
f 13/29/18 31/69/19 15/32/20
f 31/69/19 16/35/7 15/32/20
f 19/43/2 4/8/21 20/44/22
f 1/2/23 29/64/24 14/30/16
f 35/75/25 18/41/25 17/37/25
f 30/66/25 29/65/25 34/74/25
f 36/76/25 24/53/25 23/50/25
f 22/49/26 6/13/27 21/46/28
f 23/51/5 8/17/29 7/14/6
f 28/62/30 6/13/27 12/25/15
f 37/77/10 14/31/10 13/28/10
f 36/76/25 28/63/25 33/73/25
f 20/45/25 36/76/25 35/75/25
f 34/74/25 25/56/25 32/70/25
f 35/75/25 33/73/25 34/74/25
f 29/65/25 35/75/25 34/74/25
f 4/8/21 24/54/31 20/44/22
f 33/73/25 28/63/25 27/59/25
f 35/75/25 17/37/25 19/42/25
f 20/45/25 35/75/25 19/42/25
f 32/70/25 31/68/25 34/74/25
f 31/68/25 30/66/25 34/74/25
f 33/73/25 27/59/25 26/57/25
f 25/56/25 33/73/25 26/57/25
f 36/76/25 23/50/25 22/48/25
f 21/47/25 36/76/25 22/48/25
f 40/80/10 6/12/10 5/10/10
f 14/31/10 38/78/10 1/1/10
f 37/77/10 10/22/10 39/79/10
f 2/4/10 1/1/10 38/78/10
f 37/77/10 40/80/10 38/78/10
f 39/79/10 10/22/10 9/20/10
f 4/9/10 40/80/10 8/16/10
f 8/16/10 40/80/10 7/15/10
f 7/15/10 40/80/10 5/10/10
f 12/26/10 39/79/10 11/23/10
f 11/23/10 39/79/10 9/20/10
f 16/36/10 37/77/10 15/33/10
f 15/33/10 37/77/10 13/28/10
f 3/6/10 2/4/10 38/78/10
f 4/9/10 3/6/10 38/78/10
f 1/3/23 17/38/3 18/39/32
f 2/5/1 3/7/33 19/43/2
f 5/11/4 22/49/26 23/51/5
f 16/34/7 32/71/34 25/55/8
f 39/79/10 12/26/10 6/12/10
f 10/21/9 25/55/8 26/58/11
f 26/58/11 27/60/14 11/24/13
f 27/60/14 28/61/30 12/27/15
f 14/30/16 29/64/24 30/67/17
f 13/29/18 30/67/17 31/69/19
f 31/69/19 32/72/34 16/35/7
f 19/43/2 3/7/33 4/8/21
f 1/2/23 18/40/32 29/64/24
f 22/49/26 5/11/4 6/13/27
f 23/51/5 24/52/31 8/17/29
f 28/62/30 21/46/28 6/13/27
f 36/76/25 21/47/25 28/63/25
f 20/45/25 24/53/25 36/76/25
f 34/74/25 33/73/25 25/56/25
f 35/75/25 36/76/25 33/73/25
f 29/65/25 18/41/25 35/75/25
f 4/8/21 8/18/29 24/54/31
f 14/31/10 37/77/10 38/78/10
f 37/77/10 16/36/10 10/22/10
f 37/77/10 39/79/10 40/80/10
f 4/9/10 38/78/10 40/80/10
f 1/3/23 2/5/1 17/38/3
